<mxfile host="Electron" modified="2023-04-07T10:21:14.981Z" agent="Mozilla/5.0 (Windows NT 10.0; Win64; x64) AppleWebKit/537.36 (KHTML, like Gecko) draw.io/21.1.2 Chrome/106.0.5249.199 Electron/21.4.3 Safari/537.36" etag="2qjld1opu3QauTuSF4Ia" version="21.1.2" type="device">
  <diagram name="Сторінка-1" id="FRG43F8Ywq4bJaQKAQx6">
    <mxGraphModel dx="2049" dy="1206" grid="1" gridSize="10" guides="1" tooltips="1" connect="1" arrows="1" fold="1" page="1" pageScale="1" pageWidth="827" pageHeight="1169" math="0" shadow="0">
      <root>
        <mxCell id="0" />
        <mxCell id="1" parent="0" />
        <mxCell id="Ed5rShpCXynzwSERrDkb-31" value="" style="rounded=1;whiteSpace=wrap;html=1;fillColor=none;fontColor=#333333;strokeColor=#666666;" parent="1" vertex="1">
          <mxGeometry x="420" y="190" width="900" height="650" as="geometry" />
        </mxCell>
        <mxCell id="Ed5rShpCXynzwSERrDkb-1" value="Messenger" style="text;html=1;strokeColor=none;fillColor=none;align=center;verticalAlign=middle;whiteSpace=wrap;rounded=0;fontStyle=1;fontSize=28;" parent="1" vertex="1">
          <mxGeometry x="680" y="80" width="306" height="30" as="geometry" />
        </mxCell>
        <mxCell id="Ed5rShpCXynzwSERrDkb-24" style="edgeStyle=orthogonalEdgeStyle;rounded=0;orthogonalLoop=1;jettySize=auto;html=1;curved=1;endSize=14;entryX=0;entryY=0.5;entryDx=0;entryDy=0;entryPerimeter=0;" parent="1" source="Ed5rShpCXynzwSERrDkb-2" target="78IfESu2tZSLBTwP0n63-1" edge="1">
          <mxGeometry relative="1" as="geometry">
            <mxPoint x="480" y="470" as="targetPoint" />
          </mxGeometry>
        </mxCell>
        <mxCell id="Ed5rShpCXynzwSERrDkb-2" value="Web UI" style="outlineConnect=0;gradientColor=none;fontColor=#545B64;strokeColor=none;fillColor=#277116;dashed=0;verticalLabelPosition=bottom;verticalAlign=top;align=center;html=1;fontSize=12;fontStyle=0;aspect=fixed;shape=mxgraph.aws4.illustration_desktop;pointerEvents=1;labelBackgroundColor=#ffffff;" parent="1" vertex="1">
          <mxGeometry x="240" y="350" width="100" height="91" as="geometry" />
        </mxCell>
        <mxCell id="Ed5rShpCXynzwSERrDkb-25" style="edgeStyle=orthogonalEdgeStyle;rounded=0;orthogonalLoop=1;jettySize=auto;html=1;curved=1;endSize=14;entryX=0;entryY=0.5;entryDx=0;entryDy=0;entryPerimeter=0;" parent="1" source="Ed5rShpCXynzwSERrDkb-3" target="78IfESu2tZSLBTwP0n63-1" edge="1">
          <mxGeometry relative="1" as="geometry">
            <mxPoint x="480" y="540" as="targetPoint" />
          </mxGeometry>
        </mxCell>
        <mxCell id="Ed5rShpCXynzwSERrDkb-3" value="Web UI" style="outlineConnect=0;gradientColor=none;fontColor=#545B64;strokeColor=none;fillColor=#277116;dashed=0;verticalLabelPosition=bottom;verticalAlign=top;align=center;html=1;fontSize=12;fontStyle=0;aspect=fixed;shape=mxgraph.aws4.illustration_desktop;pointerEvents=1;labelBackgroundColor=#ffffff;" parent="1" vertex="1">
          <mxGeometry x="240" y="550" width="100" height="91" as="geometry" />
        </mxCell>
        <mxCell id="Ed5rShpCXynzwSERrDkb-13" value="" style="group" parent="1" vertex="1" connectable="0">
          <mxGeometry x="1030" y="240" width="250" height="110" as="geometry" />
        </mxCell>
        <mxCell id="Ed5rShpCXynzwSERrDkb-11" value="" style="rounded=1;whiteSpace=wrap;html=1;" parent="Ed5rShpCXynzwSERrDkb-13" vertex="1">
          <mxGeometry width="250" height="110" as="geometry" />
        </mxCell>
        <mxCell id="Ed5rShpCXynzwSERrDkb-10" value="" style="image;sketch=0;aspect=fixed;html=1;points=[];align=center;fontSize=12;image=img/lib/mscae/Docker.svg;" parent="Ed5rShpCXynzwSERrDkb-13" vertex="1">
          <mxGeometry x="180" y="13.968253968253968" width="49.55238095238095" height="40.63015873015873" as="geometry" />
        </mxCell>
        <mxCell id="Ed5rShpCXynzwSERrDkb-12" value="User Service" style="text;html=1;strokeColor=none;fillColor=none;align=center;verticalAlign=middle;whiteSpace=wrap;rounded=0;fontSize=16;fontStyle=1" parent="Ed5rShpCXynzwSERrDkb-13" vertex="1">
          <mxGeometry x="40" y="40.39444444444443" width="120" height="29.211111111111112" as="geometry" />
        </mxCell>
        <mxCell id="Ed5rShpCXynzwSERrDkb-16" value="" style="group" parent="1" vertex="1" connectable="0">
          <mxGeometry x="1030" y="449" width="250" height="111" as="geometry" />
        </mxCell>
        <mxCell id="Ed5rShpCXynzwSERrDkb-14" value="" style="rounded=1;whiteSpace=wrap;html=1;" parent="Ed5rShpCXynzwSERrDkb-16" vertex="1">
          <mxGeometry width="250" height="111" as="geometry" />
        </mxCell>
        <mxCell id="Ed5rShpCXynzwSERrDkb-7" value="" style="shape=image;verticalLabelPosition=bottom;labelBackgroundColor=default;verticalAlign=top;aspect=fixed;imageAspect=0;image=data:image/svg+xml,PHN2ZyB4bWxucz0iaHR0cDovL3d3dy53My5vcmcvMjAwMC9zdmciIGZpbGw9Im5vbmUiIHZpZXdCb3g9IjAgMCA0OCA0OCIgaGVpZ2h0PSI0OCIgd2lkdGg9IjQ4Ij4mI3hhOzxwYXRoIGZpbGw9IiMwNDA1MzEiIGQ9Ik0yNyA4QzI3IDkuMTA0NTcgMjYuMTA0NiAxMCAyNSAxMEMyMy44OTU0IDEwIDIzIDkuMTA0NTcgMjMgOEMyMyA2Ljg5NTQzIDIzLjg5NTQgNiAyNSA2QzI2LjEwNDYgNiAyNyA2Ljg5NTQzIDI3IDhaTTI2LjQ4MzQgMTIuNzc2M0MyOC41MjA1IDEyLjE0NDMgMzAgMTAuMjQ0OSAzMCA4QzMwIDUuMjM4NTggMjcuNzYxNCAzIDI1IDNDMjIuMjM4NiAzIDIwIDUuMjM4NTggMjAgOEMyMCAxMC4yNDQ5IDIxLjQ3OTUgMTIuMTQ0MyAyMy41MTY2IDEyLjc3NjNDMjMuNTA1NyAxMi44NDkzIDIzLjUgMTIuOTI0IDIzLjUgMTNWMTYuNjVDMjAuMDc2NiAxNy4zNDQ5IDE3LjUgMjAuMzcxNiAxNy41IDI0QzE3LjUgMjcuNjI4NCAyMC4wNzY2IDMwLjY1NTEgMjMuNSAzMS4zNVYzNUMyMy41IDM1LjA3NiAyMy41MDU3IDM1LjE1MDcgMjMuNTE2NiAzNS4yMjM3QzIxLjQ3OTUgMzUuODU1NyAyMCAzNy43NTUxIDIwIDQwQzIwIDQyLjc2MTQgMjIuMjM4NiA0NSAyNSA0NUMyNy43NjE0IDQ1IDMwIDQyLjc2MTQgMzAgNDBDMzAgMzcuNzU1MSAyOC41MjA1IDM1Ljg1NTcgMjYuNDgzNCAzNS4yMjM3QzI2LjQ5NDMgMzUuMTUwNyAyNi41IDM1LjA3NiAyNi41IDM1VjMxLjM1QzI4LjIxOTMgMzEuMDAxIDI5LjcyNSAzMC4wNjM5IDMwLjc5OCAyOC43NTc4TDM1LjE5IDMxLjQ2NjRDMzUuMTAwNiAzMi4xMTY3IDM1LjEzODYgMzIuNzk1NCAzNS4zMjMzIDMzLjQ2ODRDMzYuMDU0MiAzNi4xMzE0IDM4LjgwNTQgMzcuNjk3NyA0MS40NjgzIDM2Ljk2NjhDNDQuMTMxMyAzNi4yMzYgNDUuNjk3NiAzMy40ODQ4IDQ0Ljk2NjcgMzAuODIxOEM0NC4yMzU5IDI4LjE1ODkgNDEuNDg0NyAyNi41OTI2IDM4LjgyMTcgMjcuMzIzNEMzNy44OTEzIDI3LjU3ODggMzcuMDk0OCAyOC4wODA3IDM2LjQ4MzMgMjguNzM5NEwzMi4yMDIzIDI2LjA5OTFDMzIuMzk2MSAyNS40MzMgMzIuNSAyNC43Mjg3IDMyLjUgMjRDMzIuNSAyMy4zMTg2IDMyLjQwOTEgMjIuNjU4NCAzMi4yMzg4IDIyLjAzMDhMMzYuNTc1OCAxOS42NDhDMzcuMTc3NCAyMC4yNTU4IDM3Ljk0MyAyMC43MTczIDM4LjgyODQgMjAuOTU1NUM0MS40OTUgMjEuNjcyOCA0NC4yMzgyIDIwLjA5MjUgNDQuOTU1NSAxNy40MjU5QzQ1LjY3MjggMTQuNzU5MiA0NC4wOTI1IDEyLjAxNiA0MS40MjU5IDExLjI5ODdDMzguNzU5MiAxMC41ODE1IDM2LjAxNiAxMi4xNjE3IDM1LjI5ODggMTQuODI4NEMzNS4xMDM0IDE1LjU1NDQgMzUuMDc4NSAxNi4yODYyIDM1LjE5OTQgMTYuOTgxMkwzMC44ODU5IDE5LjM1MTJDMjkuODA3OSAxNy45ODgzIDI4LjI2NjcgMTcuMDA4NyAyNi41IDE2LjY1VjEzQzI2LjUgMTIuOTI0IDI2LjQ5NDMgMTIuODQ5MyAyNi40ODM0IDEyLjc3NjNaTTI1IDI4LjVDMjcuNDg1MyAyOC41IDI5LjUgMjYuNDg1MyAyOS41IDI0QzI5LjUgMjEuNTE0NyAyNy40ODUzIDE5LjUgMjUgMTkuNUMyMi41MTQ3IDE5LjUgMjAuNSAyMS41MTQ3IDIwLjUgMjRDMjAuNSAyNi40ODUzIDIyLjUxNDcgMjguNSAyNSAyOC41Wk0yNSA0MkMyNi4xMDQ2IDQyIDI3IDQxLjEwNDYgMjcgNDBDMjcgMzguODk1NCAyNi4xMDQ2IDM4IDI1IDM4QzIzLjg5NTQgMzggMjMgMzguODk1NCAyMyA0MEMyMyA0MS4xMDQ2IDIzLjg5NTQgNDIgMjUgNDJaTTQwLjY0NjYgMTQuMTk1OEM0MS43MTMzIDE0LjQ4MjcgNDIuMzQ1NCAxNS41OCA0Mi4wNTg1IDE2LjY0NjZDNDEuNzcxNiAxNy43MTMzIDQwLjY3NDMgMTguMzQ1NCAzOS42MDc2IDE4LjA1ODVDMzguNTQxIDE3Ljc3MTYgMzcuOTA4OSAxNi42NzQzIDM4LjE5NTggMTUuNjA3NkMzOC40ODI3IDE0LjU0MSAzOS41OCAxMy45MDg4IDQwLjY0NjYgMTQuMTk1OFpNNDAuNjc0MyAzNC4wNzM4QzQxLjczOTUgMzMuNzgxNSA0Mi4zNjYgMzIuNjgxIDQyLjA3MzcgMzEuNjE1OEM0MS43ODE0IDMwLjU1MDYgNDAuNjgwOSAyOS45MjQxIDM5LjYxNTcgMzAuMjE2NEMzOC41NTA1IDMwLjUwODggMzcuOTI0IDMxLjYwOTMgMzguMjE2MyAzMi42NzQ0QzM4LjUwODcgMzMuNzM5NiAzOS42MDkyIDM0LjM2NjEgNDAuNjc0MyAzNC4wNzM4WiIgY2xpcC1ydWxlPSJldmVub2RkIiBmaWxsLXJ1bGU9ImV2ZW5vZGQiLz4mI3hhOzxwYXRoIGZpbGw9InVybCgjcGFpbnQwX2xpbmVhcikiIGQ9Ik0xMCAyNEMxMCAxOC44NDU4IDEzLjc1NjggMTUgMTggMTVMMTggMTFDMTEuMTk3NSAxMSA2IDE3LjAwMzkgNiAyNEM2IDMwLjk5NjEgMTEuMTk3NSAzNyAxOCAzN0wxOCAzM0MxMy43NTY4IDMzIDEwIDI5LjE1NDIgMTAgMjRaIiBjbGlwLXJ1bGU9ImV2ZW5vZGQiIGZpbGwtcnVsZT0iZXZlbm9kZCIvPiYjeGE7PGRlZnM+JiN4YTs8bGluZWFyR3JhZGllbnQgZ3JhZGllbnRVbml0cz0idXNlclNwYWNlT25Vc2UiIHkyPSIzNSIgeDI9IjE4IiB5MT0iMTMiIHgxPSIxOCIgaWQ9InBhaW50MF9saW5lYXIiPiYjeGE7PHN0b3Agc3RvcC1jb2xvcj0iIzM5Q0RFRSIvPiYjeGE7PHN0b3Agc3RvcC1vcGFjaXR5PSIwLjQiIHN0b3AtY29sb3I9IiMzOENDRUQiIG9mZnNldD0iMSIvPiYjeGE7PC9saW5lYXJHcmFkaWVudD4mI3hhOzwvZGVmcz4mI3hhOzwvc3ZnPg==;" parent="Ed5rShpCXynzwSERrDkb-16" vertex="1">
          <mxGeometry x="190" width="55.5" height="55.5" as="geometry" />
        </mxCell>
        <mxCell id="Ed5rShpCXynzwSERrDkb-15" value="Message queue" style="text;html=1;strokeColor=none;fillColor=none;align=center;verticalAlign=middle;whiteSpace=wrap;rounded=0;fontSize=16;fontStyle=1" parent="Ed5rShpCXynzwSERrDkb-16" vertex="1">
          <mxGeometry x="30" y="37" width="160" height="37" as="geometry" />
        </mxCell>
        <mxCell id="Ed5rShpCXynzwSERrDkb-18" value="" style="group" parent="1" vertex="1" connectable="0">
          <mxGeometry x="570" y="450" width="250" height="109" as="geometry" />
        </mxCell>
        <mxCell id="Ed5rShpCXynzwSERrDkb-29" style="edgeStyle=orthogonalEdgeStyle;rounded=0;orthogonalLoop=1;jettySize=auto;html=1;endSize=14;" parent="Ed5rShpCXynzwSERrDkb-18" source="Ed5rShpCXynzwSERrDkb-17" edge="1">
          <mxGeometry relative="1" as="geometry">
            <mxPoint x="460" y="54.5" as="targetPoint" />
          </mxGeometry>
        </mxCell>
        <mxCell id="Ed5rShpCXynzwSERrDkb-17" value="" style="rounded=1;whiteSpace=wrap;html=1;" parent="Ed5rShpCXynzwSERrDkb-18" vertex="1">
          <mxGeometry width="250" height="109" as="geometry" />
        </mxCell>
        <mxCell id="Ed5rShpCXynzwSERrDkb-8" value="" style="image;aspect=fixed;perimeter=ellipsePerimeter;html=1;align=center;shadow=0;dashed=0;fontColor=#4277BB;labelBackgroundColor=default;fontSize=12;spacingTop=3;image=img/lib/ibm/vpc/PublicGateway.svg;" parent="Ed5rShpCXynzwSERrDkb-18" vertex="1">
          <mxGeometry x="190" y="10" width="50" height="50" as="geometry" />
        </mxCell>
        <mxCell id="Ed5rShpCXynzwSERrDkb-9" value="API Gateway" style="text;html=1;strokeColor=none;fillColor=none;align=center;verticalAlign=middle;whiteSpace=wrap;rounded=0;fontSize=16;fontStyle=1" parent="Ed5rShpCXynzwSERrDkb-18" vertex="1">
          <mxGeometry x="10" y="39.5" width="170" height="30" as="geometry" />
        </mxCell>
        <mxCell id="Ed5rShpCXynzwSERrDkb-20" value="" style="group" parent="1" vertex="1" connectable="0">
          <mxGeometry x="1030" y="660" width="250" height="126" as="geometry" />
        </mxCell>
        <mxCell id="Ed5rShpCXynzwSERrDkb-21" value="" style="rounded=1;whiteSpace=wrap;html=1;" parent="Ed5rShpCXynzwSERrDkb-20" vertex="1">
          <mxGeometry width="250" height="126" as="geometry" />
        </mxCell>
        <mxCell id="Ed5rShpCXynzwSERrDkb-22" value="" style="image;sketch=0;aspect=fixed;html=1;points=[];align=center;fontSize=12;image=img/lib/mscae/Docker.svg;" parent="Ed5rShpCXynzwSERrDkb-20" vertex="1">
          <mxGeometry x="180" y="16" width="56.76" height="46.54" as="geometry" />
        </mxCell>
        <mxCell id="Ed5rShpCXynzwSERrDkb-23" value="Message Service" style="text;html=1;strokeColor=none;fillColor=none;align=center;verticalAlign=middle;whiteSpace=wrap;rounded=0;fontSize=16;fontStyle=1" parent="Ed5rShpCXynzwSERrDkb-20" vertex="1">
          <mxGeometry x="20" y="46.27" width="140" height="33.46" as="geometry" />
        </mxCell>
        <mxCell id="Ed5rShpCXynzwSERrDkb-26" style="edgeStyle=orthogonalEdgeStyle;rounded=0;orthogonalLoop=1;jettySize=auto;html=1;entryX=0;entryY=0.5;entryDx=0;entryDy=0;curved=1;endSize=14;" parent="1" source="Ed5rShpCXynzwSERrDkb-17" target="Ed5rShpCXynzwSERrDkb-11" edge="1">
          <mxGeometry relative="1" as="geometry">
            <Array as="points">
              <mxPoint x="890" y="504" />
              <mxPoint x="890" y="295" />
            </Array>
          </mxGeometry>
        </mxCell>
        <mxCell id="Ed5rShpCXynzwSERrDkb-27" style="edgeStyle=orthogonalEdgeStyle;rounded=0;orthogonalLoop=1;jettySize=auto;html=1;entryX=0.5;entryY=0;entryDx=0;entryDy=0;endSize=14;" parent="1" source="Ed5rShpCXynzwSERrDkb-14" target="Ed5rShpCXynzwSERrDkb-21" edge="1">
          <mxGeometry relative="1" as="geometry" />
        </mxCell>
        <mxCell id="Ed5rShpCXynzwSERrDkb-30" style="edgeStyle=orthogonalEdgeStyle;rounded=0;orthogonalLoop=1;jettySize=auto;html=1;entryX=0;entryY=0.5;entryDx=0;entryDy=0;curved=1;endSize=14;" parent="1" source="Ed5rShpCXynzwSERrDkb-17" target="Ed5rShpCXynzwSERrDkb-21" edge="1">
          <mxGeometry relative="1" as="geometry">
            <Array as="points">
              <mxPoint x="890" y="504" />
              <mxPoint x="890" y="723" />
            </Array>
          </mxGeometry>
        </mxCell>
        <mxCell id="78IfESu2tZSLBTwP0n63-2" style="edgeStyle=orthogonalEdgeStyle;rounded=0;orthogonalLoop=1;jettySize=auto;html=1;endSize=14;" edge="1" parent="1" source="78IfESu2tZSLBTwP0n63-1">
          <mxGeometry relative="1" as="geometry">
            <mxPoint x="570" y="504.5" as="targetPoint" />
          </mxGeometry>
        </mxCell>
        <mxCell id="78IfESu2tZSLBTwP0n63-1" value="" style="outlineConnect=0;dashed=0;verticalLabelPosition=bottom;verticalAlign=top;align=center;html=1;shape=mxgraph.aws3.classic_load_balancer;fillColor=#F58534;gradientColor=none;" vertex="1" parent="1">
          <mxGeometry x="460" y="468.5" width="69" height="72" as="geometry" />
        </mxCell>
        <mxCell id="78IfESu2tZSLBTwP0n63-3" value="Load Balancer" style="text;html=1;strokeColor=none;fillColor=none;align=center;verticalAlign=middle;whiteSpace=wrap;rounded=0;fontSize=16;fontStyle=1" vertex="1" parent="1">
          <mxGeometry x="439.5" y="540.5" width="110" height="39.5" as="geometry" />
        </mxCell>
        <mxCell id="78IfESu2tZSLBTwP0n63-4" value="&lt;font style=&quot;font-size: 14px;&quot;&gt;add/update&lt;/font&gt;" style="text;html=1;strokeColor=none;fillColor=none;align=center;verticalAlign=middle;whiteSpace=wrap;rounded=0;" vertex="1" parent="1">
          <mxGeometry x="896" y="470" width="90" height="30" as="geometry" />
        </mxCell>
        <mxCell id="78IfESu2tZSLBTwP0n63-5" value="&lt;font style=&quot;font-size: 14px;&quot;&gt;get&lt;/font&gt;" style="text;html=1;strokeColor=none;fillColor=none;align=center;verticalAlign=middle;whiteSpace=wrap;rounded=0;" vertex="1" parent="1">
          <mxGeometry x="900" y="630" width="60" height="30" as="geometry" />
        </mxCell>
      </root>
    </mxGraphModel>
  </diagram>
</mxfile>
